Coordinates
version=1
nRows=11
nColumns=40
inDegrees=yes

Units are S.I. units (second, meters, Newtons, ...)
If the header above contains a line with 'inDegrees', this indicates whether rotational values are in degrees (yes) or radians (no).

endheader
time	pelvis_tilt	pelvis_list	pelvis_rotation	pelvis_tx	pelvis_ty	pelvis_tz	hip_flexion_r	hip_adduction_r	hip_rotation_r	knee_angle_r	knee_angle_r_beta	ankle_angle_r	subtalar_angle_r	mtp_angle_r	hip_flexion_l	hip_adduction_l	hip_rotation_l	knee_angle_l	knee_angle_l_beta	ankle_angle_l	subtalar_angle_l	mtp_angle_l	lumbar_extension	lumbar_bending	lumbar_rotation	arm_flex_r	arm_add_r	arm_rot_r	elbow_flex_r	pro_sup_r	wrist_flex_r	wrist_dev_r	arm_flex_l	arm_add_l	arm_rot_l	elbow_flex_l	pro_sup_l	wrist_flex_l	wrist_dev_l
      2.18500000	    -22.23193396	     16.69776353	     -6.66437547	     -3.25022979	      0.92882732	      0.38755992	     -7.04150090	    -19.77197903	     -0.17795887	     16.28239974	      0.28418149	    -20.57496582	      0.00000000	      0.00000000	     78.01712525	     -1.11656993	    -12.63269120	     96.44260813	      1.68324105	      7.30252465	      0.00000000	      0.00000000	    -16.23233604	    -24.44161575	     -1.63761522	     70.21523721	    -18.15135797	      3.48813464	    130.05706366	     28.16580213	      0.00000000	      0.00000000	    -77.22853463	    -13.22280873	    -39.80975145	     79.00211857	     89.51278682	      0.00000000	      0.00000000
      2.19000000	    -22.39090120	     17.28517963	     -5.69876552	     -3.22030501	      0.93144888	      0.38747936	     -8.48962525	    -20.11846631	     -0.22117397	     15.79769760	      0.27572184	    -24.28819626	      0.00000000	      0.00000000	     78.19725324	     -0.37564533	    -13.30238826	     92.29088244	      1.61077977	      7.53664038	      0.00000000	      0.00000000	    -16.20687652	    -25.30849021	     -2.60405215	     68.76527631	    -18.56069337	      3.29102141	    131.34402053	     28.31194064	      0.00000000	      0.00000000	    -77.47730538	    -12.99365365	    -40.40892826	     79.92153211	     89.51987823	      0.00000000	      0.00000000
      2.19500000	    -22.47018210	     17.75974864	     -4.87193268	     -3.19045748	      0.93439864	      0.38741102	     -9.70495129	    -20.33146643	     -0.11931098	     15.81446068	      0.27601441	    -27.46743071	      0.00000000	      0.00000000	     78.03766829	      0.28470818	    -13.94671983	     87.96037985	      1.53519824	      7.71148574	      0.00000000	      0.00000000	    -16.31653783	    -26.05118227	     -3.42522122	     66.95421229	    -19.04974860	      3.12729581	    132.43970352	     28.82755580	      0.00000000	      0.00000000	    -77.34600817	    -12.84115082	    -40.89038040	     80.78744601	     89.52170841	      0.00000000	      0.00000000
      2.20000000	    -22.46046180	     18.10200117	     -4.19595666	     -3.16071709	      0.93761323	      0.38734837	    -10.66967731	    -20.40384398	      0.13924610	     16.38185857	      0.28591737	    -30.01444483	      0.00000000	      0.00000000	     77.55101445	      0.85863982	    -14.53459490	     83.48565258	      1.45709952	      7.81120149	      0.00000000	      0.00000000	    -16.55804586	    -26.63802310	     -4.07323134	     64.82765145	    -19.61292806	      3.01356898	    133.34990604	     29.28708701	      0.00000000	      0.00000000	    -76.83057473	    -12.79212267	    -41.22807462	     81.59118179	     89.51838773	      0.00000000	      0.00000000
      2.20500000	    -22.35328944	     18.30549729	     -3.67642254	     -3.13109963	      0.94102350	      0.38728573	    -11.37744698	    -20.33986455	      0.54473998	     17.53284928	      0.30600595	    -31.86230579	      0.00000000	      0.00000000	     76.75234577	      1.34635911	    -15.04999818	     78.90467345	      1.37714635	      7.81840738	      0.00000000	      0.00000000	    -16.92616394	    -27.05427527	     -4.53064580	     62.42984732	    -20.23795999	      2.95510918	    134.06981353	     29.41228997	      0.00000000	      0.00000000	    -75.93946695	    -12.86676905	    -41.39835584	     82.32898697	     89.51009497	      0.00000000	      0.00000000
      2.21000000	    -22.14407808	     18.37582943	     -3.30975910	     -3.10160708	      0.94455661	      0.38721803	    -11.83431124	    -20.15346251	      1.06313626	     19.27673110	      0.33644243	    -32.98322450	      0.00000000	      0.00000000	     75.66103722	      1.75432788	    -15.49201451	     74.25749191	      1.29603773	      7.71385294	      0.00000000	      0.00000000	    -17.41315008	    -27.30153875	     -4.79189430	     59.80733237	    -20.90039451	      2.90603490	    134.46882584	     30.49391604	      0.00000000	      0.00000000	    -74.69467514	    -13.07816673	    -41.38081619	     83.00470149	     89.49569055	      0.00000000	      0.00000000
      2.21500000	    -21.83393493	     18.32716356	     -3.08148881	     -3.07222947	      0.94813773	      0.38713809	    -12.05934569	    -19.86464736	      1.64131491	     21.59166531	      0.37684565	    -33.39646781	      0.00000000	      0.00000000	     74.30242039	      2.09491272	    -15.87172494	     69.58662672	      1.21451575	      7.47755646	      0.00000000	      0.00000000	    -18.00874519	    -27.39328565	     -4.86532848	     56.98616457	    -21.57933252	      2.86475898	    134.62847954	     31.23625490	      0.00000000	      0.00000000	    -73.12831570	    -13.42931874	    -41.16071051	     83.62822792	     89.47629939	      0.00000000	      0.00000000
      2.22000000	    -21.43075468	     18.17743668	     -2.96607528	     -3.04294818	      0.95169153	      0.38703339	    -12.08187788	    -19.49516883	      2.21670009	     24.42305281	      0.42626268	    -33.17317672	      0.00000000	      0.00000000	     72.70906200	      2.38519959	    -16.20734762	     64.93823009	      1.13338593	      7.09273857	      0.00000000	      0.00000000	    -18.70048827	    -27.34879387	     -4.77077027	     53.99175711	    -22.24370793	      2.77490937	    134.49715649	     32.04927953	      0.00000000	      0.00000000	    -71.27965357	    -13.91580753	    -40.72759324	     84.21541266	     89.45073893	      0.00000000	      0.00000000
      2.22500000	    -20.94944639	     17.94163258	     -2.92868447	     -3.01373983	      0.95514164	      0.38688719	    -11.93563042	    -19.06199331	      2.72752309	     27.68990436	      0.48328000	    -32.43716561	      0.00000000	      0.00000000	     70.92186782	      2.64274400	    -16.51715124	     60.36646348	      1.05359355	      6.55087405	      0.00000000	      0.00000000	    -19.47204925	    -27.18453895	     -4.53617828	     50.83938704	    -22.86244405	      2.58310551	    134.06567198	     32.88954391	      0.00000000	      0.00000000	    -69.18933378	    -14.52604843	    -40.07676019	     84.78366761	     89.41890207	      0.00000000	      0.00000000
      2.23000000	    -20.41216461	     17.62648481	     -2.92822545	     -2.98458193	      0.95840888	      0.38668248	    -11.64987961	    -18.57182488	      3.11983606	     31.29875629	      0.54626635	    -31.35015187	      0.00000000	      0.00000000	     68.99125840	      2.87991044	    -16.81437750	     55.93844413	      0.97631003	      5.85699399	      0.00000000	      0.00000000	    -20.30081970	    -26.90793975	     -4.19260463	     47.53511272	    -23.40844609	      2.26295783	    133.39389128	     32.91802252	      0.00000000	      0.00000000	    -66.89613818	    -15.24201397	    -39.20991672	     85.34921813	     89.38149653	      0.00000000	      0.00000000
      2.23500000	    -19.84815448	     17.22908311	     -2.92118924	     -2.95545964	      0.96140900	      0.38640640	    -11.24170595	    -18.01955618	      3.35157720	     35.15888459	      0.61363830	    -30.08718484	      0.00000000	      0.00000000	     66.97749854	      3.09887106	    -17.10478755	     51.73737190	      0.90298749	      5.03456352	      0.00000000	      0.00000000	    -21.15651535	    -26.51554060	     -3.76837372	     44.10365393	    -23.84227739	      1.71132706	    132.29824924	     34.41444531	      0.00000000	      0.00000000	    -64.43437482	    -16.04218210	    -38.13389706	     85.92654569	     89.33580485	      0.00000000	      0.00000000
